<svg version="1.1" id="Layer_1" xmlns="http://www.w3.org/2000/svg" xmlns:xlink="http://www.w3.org/1999/xlink" x="0px" y="0px"
	 width="100%" viewBox="0 0 1500 600" enable-background="new 0 0 1500 600" xml:space="preserve">
<path fill="#FFFFFF" opacity="1.000000" stroke="none" 
	d="
M1063.000000,601.000000 
	C708.708740,601.000000 354.917450,601.000000 1.063081,601.000000 
	C1.063081,401.065826 1.063081,201.131653 1.063081,1.098736 
	C501.000000,1.098736 1001.000000,1.098736 1500.973633,1.098736 
	C1500.973633,201.082794 1500.973633,401.041412 1500.973633,601.000000 
	C1355.131470,601.000000 1209.315674,601.000000 1063.000000,601.000000 
M862.234436,155.405991 
	C861.822937,158.627853 861.126587,161.843460 861.055786,165.072784 
	C860.874634,173.340637 860.971802,181.614609 860.322876,190.189590 
	C857.093140,192.085037 853.836365,193.936172 850.638306,195.883682 
	C837.833679,203.681213 825.078125,211.559799 812.246094,219.311798 
	C796.897644,228.583923 781.464905,237.716949 766.151062,247.045395 
	C764.839722,247.844208 764.146729,249.658188 762.820374,251.672256 
	C762.935730,253.781204 763.051086,255.890137 763.248474,258.667664 
	C768.786926,262.923004 774.606018,266.867188 779.776855,271.530182 
	C784.067688,275.399597 787.534973,274.653229 791.819580,271.801544 
	C795.266968,269.507080 799.226379,267.981812 802.992249,267.037537 
	C802.994873,311.493164 802.986633,355.948822 803.037415,400.404419 
	C803.039551,402.283844 803.590027,404.162598 804.003357,406.773376 
	C806.520142,408.182159 808.920166,410.452301 811.579041,410.812469 
	C816.440491,411.470947 821.455017,411.011536 826.405579,410.997192 
	C833.284729,410.977295 836.161926,408.210510 836.968384,400.073730 
	C836.978943,394.590485 836.994751,389.107269 836.999146,383.624023 
	C837.036316,337.432251 837.071411,291.240479 837.729614,244.752396 
	C840.190247,243.152725 842.607361,241.480988 845.118469,239.964905 
	C863.034851,229.147964 880.964417,218.352753 898.902405,207.571640 
	C908.013977,202.095428 917.111023,196.592010 926.324158,191.291290 
	C927.623352,190.543762 929.886963,190.213211 931.121216,190.839142 
	C935.487732,193.053497 939.611511,195.749832 943.808655,198.294174 
	C958.212708,207.026031 972.591919,215.798889 987.013245,224.502060 
	C998.634521,231.515411 1010.297668,238.459564 1021.951843,245.418365 
	C1037.400146,254.642746 1052.792603,263.965088 1068.392578,272.925995 
	C1070.383545,274.069580 1074.144775,274.348114 1075.937622,273.213287 
	C1081.870239,269.457733 1087.473511,265.099365 1092.802002,260.506897 
	C1095.431152,258.240875 1097.940186,255.076141 1094.751953,251.164993 
	C1094.751953,251.164993 1094.727539,250.754379 1094.825806,250.000427 
	C1089.957153,246.550491 1085.264893,242.812042 1080.186523,239.704987 
	C1065.292114,230.592392 1050.222168,221.767426 1035.262939,212.760193 
	C1022.544739,205.102249 1009.903809,197.316025 997.194214,189.643478 
	C979.591003,179.016754 961.994873,168.377121 944.305664,157.894897 
	C940.023499,155.357407 935.388855,153.414856 930.225952,151.085052 
	C928.817566,151.112152 927.409241,151.139252 925.309753,151.259689 
	C919.239807,154.821304 913.169861,158.382935 907.012146,161.206268 
	C906.619263,159.804398 906.226379,158.402512 905.946594,156.288803 
	C904.541138,152.654449 901.496948,151.561447 897.073792,151.031570 
	C887.716125,151.076477 878.358521,151.121399 868.315063,151.257355 
	C866.505371,152.490829 864.695618,153.724319 862.234436,155.405991 
M352.947144,313.107056 
	C351.104858,312.071472 349.312531,310.266388 347.411102,310.142944 
	C341.437469,309.755280 335.421326,309.923370 329.424805,310.039551 
	C327.176270,310.083099 324.355621,309.853851 322.853638,311.062988 
	C321.307007,312.308075 321.049530,315.154480 320.168823,317.454681 
	C308.702667,307.282135 294.874176,305.990295 280.608612,309.361786 
	C268.039459,312.332306 257.853271,319.407013 251.953232,331.379822 
	C243.126007,349.292633 243.577393,367.728027 251.108643,385.664886 
	C258.470306,403.197906 272.378052,412.026276 291.676208,412.037262 
	C301.614105,412.042908 310.566803,409.204102 319.000488,403.086182 
	C319.000488,416.040314 319.052643,428.341827 318.969269,440.642365 
	C318.943665,444.421112 320.530426,446.084076 324.328796,446.029358 
	C331.492493,445.926086 338.658752,446.004364 345.823944,445.998718 
	C352.628235,445.993378 352.997650,445.640350 352.997894,438.990967 
	C352.999603,397.332916 352.995117,355.674835 352.947144,313.107056 
M662.000000,400.375916 
	C662.000000,401.209106 661.998352,402.042297 662.000305,402.875488 
	C662.015991,409.604126 662.395020,409.991882 669.059570,409.998505 
	C675.890991,410.005310 682.728882,409.817932 689.551514,410.063171 
	C694.205811,410.230469 696.317993,408.620514 696.058899,403.758575 
	C695.793213,398.774139 696.552307,393.688416 695.876160,388.783020 
	C694.739868,380.539825 697.728394,374.655060 705.214722,370.093231 
	C705.551392,370.588013 706.141602,371.381378 706.655273,372.221558 
	C713.806030,383.916443 720.908203,395.641541 728.148193,407.280884 
	C728.874084,408.447723 730.403687,409.851593 731.589233,409.878693 
	C740.915039,410.091980 750.249390,410.092590 759.577881,409.949432 
	C763.325378,409.891907 764.926819,406.618927 762.932861,403.464813 
	C758.222900,396.014282 753.432739,388.614502 748.700012,381.178284 
	C741.698547,370.177185 734.718750,359.162292 727.658875,348.041626 
	C729.056335,346.567017 730.140198,345.332458 731.317932,344.195129 
	C740.273438,335.546387 749.310242,326.980042 758.144653,318.209686 
	C759.406921,316.956604 760.462463,314.677307 760.309998,312.990753 
	C760.010864,309.681244 757.078552,309.928558 754.539490,309.985474 
	C751.708374,310.048950 748.874695,309.986786 746.042236,310.002594 
	C738.547852,310.044434 730.211670,308.065033 723.795837,310.720398 
	C717.386536,313.373138 712.846375,320.617554 707.587158,325.948059 
	C703.838562,329.747467 700.256042,333.710724 696.000000,338.238495 
	C696.000000,335.662415 696.000000,334.034607 696.000000,332.406769 
	C696.000000,315.244965 695.929016,298.082642 696.050842,280.921722 
	C696.080688,276.714996 694.577881,274.841095 690.235352,274.950958 
	C683.075256,275.132050 675.907288,274.990479 668.742615,275.002838 
	C662.473267,275.013672 662.003113,275.493988 662.002319,281.941589 
	C661.997681,321.097168 662.000000,360.252747 662.000000,400.375916 
M961.824951,374.909607 
	C956.016907,374.141663 950.208862,373.373749 944.680359,372.642761 
	C938.910461,384.014679 934.214050,387.396820 926.342834,385.932251 
	C917.018738,384.197357 911.314697,378.757812 910.162659,368.944885 
	C932.734497,368.944885 955.240967,368.944885 978.447632,368.944885 
	C977.933411,361.364014 978.013489,354.378418 976.886047,347.593506 
	C974.417480,332.738281 967.805542,320.494110 953.694702,313.233673 
	C940.669006,306.531586 926.861633,305.166321 912.989502,308.248077 
	C894.817200,312.285095 882.712341,323.650818 877.549988,341.886780 
	C874.821716,351.524445 874.030640,361.305847 876.062561,371.114166 
	C879.104370,385.797302 885.591187,398.034424 899.913086,405.090393 
	C910.001770,410.060760 920.522705,411.355774 931.469910,410.994995 
	C952.091125,410.315491 967.644775,401.819305 975.993469,382.149323 
	C977.414612,378.800964 975.950073,376.783173 972.988403,376.103760 
	C969.660645,375.340363 966.161194,375.325470 961.824951,374.909607 
M1027.999268,404.072998 
	C1027.999512,386.742035 1027.852905,369.409424 1028.046753,352.080627 
	C1028.201172,338.267700 1036.966797,332.124023 1048.375488,332.065857 
	C1053.781982,332.038330 1058.905884,336.152283 1059.877930,341.001770 
	C1060.551758,344.363464 1060.930786,347.839478 1060.952026,351.267456 
	C1061.057373,368.264465 1060.993408,385.262482 1061.003418,402.260162 
	C1061.007080,408.528473 1061.493164,408.989929 1067.946167,408.998047 
	C1074.778564,409.006683 1081.610962,409.012268 1088.443359,408.996246 
	C1094.429199,408.982208 1095.063110,408.418671 1094.983765,402.370789 
	C1094.691650,380.105957 1094.430420,357.839905 1093.957031,335.578613 
	C1093.735596,325.163788 1088.474609,317.295410 1079.616699,312.395782 
	C1068.374634,306.177307 1056.127563,305.131409 1043.852539,308.739746 
	C1037.746216,310.534698 1032.045288,313.709015 1026.277588,316.208740 
	C1025.526978,309.000671 1025.526978,309.000366 1017.524170,309.000092 
	C1011.358337,308.999847 1005.192261,309.038544 999.026855,308.985199 
	C995.803528,308.957336 994.002136,310.296570 994.002197,313.659790 
	C994.002686,343.822327 994.007507,373.984833 993.993286,404.147369 
	C993.991760,407.430328 995.536194,409.018005 998.833923,409.007233 
	C1006.999390,408.980530 1015.175354,409.211517 1023.321655,408.815704 
	C1024.937012,408.737213 1026.438721,406.321381 1027.999268,404.072998 
M425.369843,386.022705 
	C415.955627,389.591949 407.452087,382.931641 407.049744,376.713898 
	C406.526794,368.632446 406.152191,360.532074 406.042755,352.435364 
	C405.878510,340.282318 405.908447,328.124298 406.050323,315.970673 
	C406.098938,311.807648 404.674011,309.840332 400.290558,309.951263 
	C393.135193,310.132324 385.968597,310.130829 378.813141,309.951141 
	C374.517365,309.843262 372.927765,311.621033 372.949493,315.866638 
	C373.059448,337.345978 372.852936,358.827667 373.076111,380.305237 
	C373.159790,388.360260 375.685730,396.212738 381.501892,401.706543 
	C391.585602,411.231384 404.417664,414.045380 417.695007,411.406036 
	C426.106384,409.733917 434.033447,405.625153 441.889893,402.715790 
	C442.258545,409.999664 442.258545,409.999847 450.801697,409.999969 
	C456.463043,410.000031 462.125366,409.936615 467.785400,410.022552 
	C471.270996,410.075470 473.016571,408.628571 473.013550,405.034515 
	C472.988220,375.062592 472.983795,345.090637 473.019897,315.118774 
	C473.024139,311.590607 471.494019,309.952911 467.938873,309.981720 
	C460.279877,310.043762 452.619812,310.033905 444.960632,309.986359 
	C441.363953,309.963989 440.019104,311.741211 439.967438,315.218658 
	C439.706085,332.804901 439.277832,350.388641 439.021942,367.974945 
	C438.880127,377.720856 435.529785,382.578705 425.369843,386.022705 
M610.577393,411.019684 
	C628.082031,409.238434 643.230286,399.607880 649.279236,378.558441 
	C650.455566,374.465118 649.583435,372.540558 645.555969,371.998657 
	C637.777893,370.952087 629.988525,369.989685 622.202515,369.002625 
	C618.896606,368.583527 617.459656,369.563873 616.645935,373.334839 
	C614.720520,382.257660 609.630066,386.280334 601.587952,387.025421 
	C595.560852,387.583832 586.191284,383.399872 583.723816,376.430969 
	C579.967651,365.822174 579.862061,355.277802 582.862305,344.603210 
	C585.358459,335.722076 593.827271,332.890198 600.777283,333.021210 
	C608.106140,333.159363 612.779053,337.102783 615.718018,345.386475 
	C616.023926,346.248718 616.293335,347.123932 616.698608,348.354248 
	C626.566528,347.201294 636.191040,346.230438 645.738281,344.758331 
	C646.875977,344.582947 648.726990,341.298218 648.326660,340.092590 
	C644.730957,329.263916 639.116760,319.903290 628.587769,314.171692 
	C616.912598,307.816132 604.242920,306.952118 591.635376,308.310150 
	C584.074890,309.124573 576.235901,311.664917 569.540588,315.303680 
	C555.476807,322.947083 548.476929,335.487976 546.820496,351.588531 
	C544.922424,370.038574 547.629883,386.719727 562.160828,399.568420 
	C575.860840,411.682434 592.270874,413.718811 610.577393,411.019684 
M1118.997192,336.741547 
	C1118.998169,353.387726 1118.536133,370.050903 1119.147827,386.674622 
	C1119.629272,399.763428 1124.262085,406.039429 1136.033569,409.419373 
	C1147.566040,412.730713 1159.143677,411.224976 1170.423340,407.676270 
	C1171.583130,407.311462 1172.946045,405.027252 1172.863159,403.719269 
	C1172.491455,397.846588 1171.904419,391.949738 1170.742554,386.193329 
	C1170.474609,384.865814 1167.747070,383.615997 1165.940308,383.152313 
	C1164.530518,382.790527 1162.787964,383.678040 1161.203369,384.052948 
	C1153.815552,385.800964 1152.031494,384.448090 1152.010132,376.864838 
	C1151.973389,363.880920 1151.989868,350.896851 1152.016724,337.912903 
	C1152.019287,336.656281 1152.251099,335.400146 1152.390869,333.999878 
	C1156.932739,333.999878 1161.093750,333.853607 1165.239868,334.040131 
	C1169.579468,334.235352 1171.215820,332.288879 1171.041748,328.081268 
	C1170.856201,323.594482 1170.881836,319.090057 1171.034790,314.600800 
	C1171.171753,310.575409 1169.464844,308.826050 1165.422485,308.965698 
	C1161.013550,309.117981 1156.595337,309.000305 1151.999512,309.000305 
	C1151.999512,299.257294 1152.048218,290.277588 1151.979248,281.298798 
	C1151.944214,276.729919 1149.395996,275.172363 1145.333130,277.313995 
	C1137.242310,281.578888 1129.187988,285.919250 1121.238647,290.439545 
	C1120.142090,291.063110 1119.170410,292.860779 1119.101074,294.165802 
	C1118.847778,298.939514 1119.000732,303.734772 1119.000732,309.000031 
	C1116.436890,309.000031 1114.305786,309.136505 1112.198242,308.971680 
	C1107.779175,308.626038 1105.701538,310.372253 1105.954590,314.980865 
	C1106.173340,318.963928 1105.994873,322.968506 1106.000977,326.963593 
	C1106.011230,333.617584 1106.389648,333.852112 1113.132812,334.081665 
	C1115.098877,334.148651 1117.031616,335.196564 1118.997192,336.741547 
M530.000000,336.500000 
	C529.999878,329.506744 529.898254,322.511414 530.038330,315.520966 
	C530.120056,311.442017 528.327698,309.884827 524.340942,309.958801 
	C516.684326,310.100952 509.022186,310.072174 501.364227,309.969940 
	C497.594055,309.919647 495.964447,311.515900 495.971222,315.315216 
	C496.024170,345.119751 496.023712,374.924469 495.971924,404.729004 
	C495.965302,408.556824 497.665985,410.084473 501.408539,410.030579 
	C508.733276,409.925018 516.060608,410.010986 523.386902,409.996521 
	C529.420227,409.984619 529.992798,409.426666 529.995728,403.436523 
	C530.006592,381.457672 530.000000,359.478851 530.000000,336.500000 
M530.000000,297.151489 
	C529.999756,291.493164 529.938904,285.833984 530.021606,280.176880 
	C530.072754,276.675568 528.578247,274.961243 525.001282,274.984528 
	C517.013428,275.036560 509.024719,275.040344 501.036896,274.982788 
	C497.475403,274.957123 495.932861,276.620972 495.979614,280.138611 
	C496.057037,285.962311 496.082520,291.789368 495.971008,297.612000 
	C495.899139,301.364258 497.471863,303.076508 501.287323,303.028778 
	C509.107880,302.930969 516.931091,302.945801 524.752075,303.023926 
	C528.213501,303.058502 530.096436,301.681488 530.000000,297.151489 
M1186.023315,384.892853 
	C1181.044434,397.246979 1186.157715,406.298676 1198.898315,408.917542 
	C1208.624146,410.916718 1213.996094,406.683655 1214.001221,396.982483 
	C1214.005859,387.981049 1214.656372,389.032471 1205.377563,389.005432 
	C1198.576904,388.985626 1198.546265,389.041962 1199.515869,395.770752 
	C1201.225464,395.936676 1202.983521,396.107361 1204.729736,396.276855 
	C1205.283081,399.382751 1205.211304,402.415466 1201.359863,401.475769 
	C1199.004639,400.901062 1196.545288,398.766388 1195.164551,396.656891 
	C1193.149414,393.578430 1193.505493,390.126862 1196.272949,387.206970 
	C1199.339233,383.971893 1202.766357,382.990387 1206.940186,384.914093 
	C1209.372314,386.035126 1211.979736,386.357391 1212.841064,383.109528 
	C1213.610107,380.209381 1211.897095,378.623688 1208.990234,377.892975 
	C1200.197876,375.682861 1192.347290,376.532349 1186.023315,384.892853 
M1237.135742,377.841980 
	C1237.135742,381.446564 1237.135742,385.051117 1237.135742,388.650024 
	C1233.683472,388.650024 1230.963989,388.650024 1228.283325,388.650024 
	C1227.318970,376.255676 1227.318970,376.255676 1219.000000,377.598877 
	C1219.000000,385.316040 1218.999146,393.107727 1219.000244,400.899414 
	C1219.001221,408.604553 1219.824707,409.203766 1228.000000,407.213348 
	C1228.000000,405.461670 1228.000000,403.644592 1228.000000,401.827515 
	C1228.000000,400.040375 1228.000000,398.253235 1228.000000,396.000092 
	C1229.743286,396.000092 1231.037842,395.967560 1232.330078,396.008759 
	C1233.775024,396.054810 1235.217651,396.167816 1236.601196,396.248199 
	C1237.979370,408.925720 1237.979370,408.925720 1246.991699,407.369843 
	C1246.991699,398.649506 1247.050903,389.857727 1246.954590,381.067596 
	C1246.926636,378.513702 1245.910889,376.599670 1242.744629,376.976135 
	C1241.099731,377.171661 1239.424072,377.107910 1237.135742,377.841980 
M1250.009155,405.165649 
	C1251.008789,408.890869 1253.672119,409.412903 1256.865845,408.561279 
	C1260.927490,407.478180 1260.599365,403.920410 1259.715698,401.339081 
	C1259.193604,399.813904 1256.291260,398.215607 1254.459717,398.216034 
	C1250.921265,398.216888 1249.394653,400.749115 1250.009155,405.165649 
z"/>
<path fill="#FA9A36" opacity="1.000000" stroke="none" 
	d="
M803.885071,406.041687 
	C803.590027,404.162598 803.039551,402.283844 803.037415,400.404419 
	C802.986633,355.948822 802.994873,311.493164 802.986450,266.182312 
	C802.927551,262.562225 802.757568,261.025604 799.413208,263.433746 
	C795.777832,266.051453 791.714111,268.429962 787.476013,269.774292 
	C780.506348,271.985107 777.019531,265.352112 772.015015,262.545746 
	C769.121826,260.923279 767.311096,257.184845 763.166382,257.999084 
	C763.051086,255.890137 762.935730,253.781204 763.369019,251.334625 
	C769.492615,248.038620 775.218872,245.330719 780.611267,242.070496 
	C792.342102,234.977997 803.802002,227.436035 815.559509,220.389557 
	C828.599365,212.574570 841.902527,205.199265 854.960632,197.413818 
	C857.727234,195.764343 861.563171,194.447998 860.957642,189.886124 
	C860.971802,181.614609 860.874634,173.340637 861.055786,165.072784 
	C861.126587,161.843460 861.822937,158.627853 862.971436,155.194199 
	C866.473816,155.098907 869.205505,155.168777 869.000854,151.166321 
	C878.358521,151.121399 887.716125,151.076477 897.612488,151.448334 
	C899.105469,153.822723 900.059692,155.780350 901.062988,157.838486 
	C902.659912,157.557999 904.246704,157.279312 905.833496,157.000626 
	C906.226379,158.402512 906.619263,159.804398 906.742981,161.726807 
	C905.688965,163.160034 904.904114,164.072723 904.119324,164.985413 
	C906.119629,165.650803 907.734985,165.588730 908.955933,164.863129 
	C912.980042,162.471710 916.695435,159.510803 920.854980,157.414627 
	C923.706848,155.977417 926.153503,154.811783 926.000854,151.166336 
	C927.409241,151.139252 928.817566,151.112152 930.578979,151.576233 
	C932.075806,153.987534 932.790100,156.495255 934.450378,157.708954 
	C938.243347,160.481781 942.493225,162.631592 946.568542,165.015656 
	C952.123474,168.265350 957.723938,171.438675 963.240906,174.751297 
	C971.101685,179.471176 978.873047,184.340225 986.742981,189.044617 
	C991.987488,192.179642 997.391357,195.048904 1002.625977,198.199677 
	C1009.046692,202.064331 1015.338989,206.141907 1021.734924,210.048492 
	C1029.928711,215.053116 1038.178467,219.965744 1046.388916,224.943008 
	C1054.081055,229.606049 1061.728638,234.342850 1069.442627,238.969284 
	C1075.027100,242.318588 1080.927124,245.203079 1086.218750,248.954636 
	C1089.070923,250.976715 1091.420898,252.293518 1094.727539,250.754379 
	C1094.727539,250.754379 1094.751953,251.164993 1094.432373,251.641922 
	C1090.137573,259.533997 1083.262573,263.911377 1076.441650,268.039368 
	C1074.072510,269.473175 1069.910522,269.721497 1067.334351,268.656342 
	C1062.402344,266.617065 1058.047607,263.202148 1053.403564,260.441589 
	C1040.734985,252.911087 1028.061646,245.388153 1015.346558,237.936615 
	C1009.863403,234.723221 1004.154053,231.884048 998.761230,228.531021 
	C992.245117,224.479645 986.051819,219.909882 979.544861,215.842880 
	C970.674377,210.298630 961.653442,204.994034 952.670898,199.630463 
	C945.211243,195.176224 937.759705,190.703217 930.179626,186.461716 
	C929.139099,185.879440 927.084717,186.109055 925.995483,186.774399 
	C918.354126,191.441895 910.846985,196.328903 903.288940,201.133057 
	C896.841187,205.231461 890.458984,209.440231 883.907959,213.366852 
	C877.133606,217.427353 870.155029,221.145294 863.330627,225.124374 
	C854.804382,230.095856 846.282654,235.083420 837.944092,240.356888 
	C837.038330,240.929703 837.356628,243.438110 837.107178,245.048706 
	C837.071411,291.240479 837.036316,337.432251 836.999146,383.624023 
	C836.994751,389.107269 836.978943,394.590485 836.561523,400.607727 
	C833.726257,405.517365 830.328613,407.613739 825.029663,407.091553 
	C818.015076,406.400391 810.936279,406.361115 803.885071,406.041687 
z"/>
<path fill="#2D83F0" opacity="1.000000" stroke="none" 
	d="
M352.969910,313.561920 
	C352.995117,355.674835 352.999603,397.332916 352.997894,438.990967 
	C352.997650,445.640350 352.628235,445.993378 345.823944,445.998718 
	C338.658752,446.004364 331.492493,445.926086 324.328796,446.029358 
	C320.530426,446.084076 318.943665,444.421112 318.969269,440.642365 
	C319.052643,428.341827 319.000488,416.040314 319.000488,403.086182 
	C310.566803,409.204102 301.614105,412.042908 291.676208,412.037262 
	C272.378052,412.026276 258.470306,403.197906 251.108643,385.664886 
	C243.577393,367.728027 243.126007,349.292633 251.953232,331.379822 
	C257.853271,319.407013 268.039459,312.332306 280.608612,309.361786 
	C294.874176,305.990295 308.702667,307.282135 320.168823,317.454681 
	C321.049530,315.154480 321.307007,312.308075 322.853638,311.062988 
	C324.355621,309.853851 327.176270,310.083099 329.424805,310.039551 
	C335.421326,309.923370 341.437469,309.755280 347.411102,310.142944 
	C349.312531,310.266388 351.104858,312.071472 352.969910,313.561920 
M292.236267,385.693939 
	C303.923340,387.607727 312.893463,384.272308 316.607086,375.566437 
	C320.397797,366.679840 321.373596,357.293091 318.361755,347.794281 
	C315.362335,338.334656 308.305115,332.786316 299.388641,333.000366 
	C291.120392,333.198853 283.292877,339.428436 281.414673,348.436279 
	C280.218323,354.174194 279.719330,360.262024 280.182739,366.091614 
	C280.815765,374.055573 283.794006,381.233185 292.236267,385.693939 
z"/>
<path fill="#2D83F0" opacity="1.000000" stroke="none" 
	d="
M662.000000,399.892120 
	C662.000000,360.252747 661.997681,321.097168 662.002319,281.941589 
	C662.003113,275.493988 662.473267,275.013672 668.742615,275.002838 
	C675.907288,274.990479 683.075256,275.132050 690.235352,274.950958 
	C694.577881,274.841095 696.080688,276.714996 696.050842,280.921722 
	C695.929016,298.082642 696.000000,315.244965 696.000000,332.406769 
	C696.000000,334.034607 696.000000,335.662415 696.000000,338.238495 
	C700.256042,333.710724 703.838562,329.747467 707.587158,325.948059 
	C712.846375,320.617554 717.386536,313.373138 723.795837,310.720398 
	C730.211670,308.065033 738.547852,310.044434 746.042236,310.002594 
	C748.874695,309.986786 751.708374,310.048950 754.539490,309.985474 
	C757.078552,309.928558 760.010864,309.681244 760.309998,312.990753 
	C760.462463,314.677307 759.406921,316.956604 758.144653,318.209686 
	C749.310242,326.980042 740.273438,335.546387 731.317932,344.195129 
	C730.140198,345.332458 729.056335,346.567017 727.658875,348.041626 
	C734.718750,359.162292 741.698547,370.177185 748.700012,381.178284 
	C753.432739,388.614502 758.222900,396.014282 762.932861,403.464813 
	C764.926819,406.618927 763.325378,409.891907 759.577881,409.949432 
	C750.249390,410.092590 740.915039,410.091980 731.589233,409.878693 
	C730.403687,409.851593 728.874084,408.447723 728.148193,407.280884 
	C720.908203,395.641541 713.806030,383.916443 706.655273,372.221558 
	C706.141602,371.381378 705.551392,370.588013 705.214722,370.093231 
	C697.728394,374.655060 694.739868,380.539825 695.876160,388.783020 
	C696.552307,393.688416 695.793213,398.774139 696.058899,403.758575 
	C696.317993,408.620514 694.205811,410.230469 689.551514,410.063171 
	C682.728882,409.817932 675.890991,410.005310 669.059570,409.998505 
	C662.395020,409.991882 662.015991,409.604126 662.000305,402.875488 
	C661.998352,402.042297 662.000000,401.209106 662.000000,399.892120 
z"/>
<path fill="#2D83F0" opacity="1.000000" stroke="none" 
	d="
M962.280640,374.947296 
	C966.161194,375.325470 969.660645,375.340363 972.988403,376.103760 
	C975.950073,376.783173 977.414612,378.800964 975.993469,382.149323 
	C967.644775,401.819305 952.091125,410.315491 931.469910,410.994995 
	C920.522705,411.355774 910.001770,410.060760 899.913086,405.090393 
	C885.591187,398.034424 879.104370,385.797302 876.062561,371.114166 
	C874.030640,361.305847 874.821716,351.524445 877.549988,341.886780 
	C882.712341,323.650818 894.817200,312.285095 912.989502,308.248077 
	C926.861633,305.166321 940.669006,306.531586 953.694702,313.233673 
	C967.805542,320.494110 974.417480,332.738281 976.886047,347.593506 
	C978.013489,354.378418 977.933411,361.364014 978.447632,368.944885 
	C955.240967,368.944885 932.734497,368.944885 910.162659,368.944885 
	C911.314697,378.757812 917.018738,384.197357 926.342834,385.932251 
	C934.214050,387.396820 938.910461,384.014679 944.680359,372.642761 
	C950.208862,373.373749 956.016907,374.141663 962.280640,374.947296 
M939.486633,336.990509 
	C927.905212,326.418365 911.506165,334.361359 910.316711,348.000000 
	C915.957092,348.000000 921.567078,348.000000 927.177124,348.000000 
	C932.929199,348.000000 938.681213,348.000000 945.688538,348.000000 
	C943.503845,343.965149 941.758240,340.741333 939.486633,336.990509 
z"/>
<path fill="#2D83F0" opacity="1.000000" stroke="none" 
	d="
M1027.996094,404.528198 
	C1026.438721,406.321381 1024.937012,408.737213 1023.321655,408.815704 
	C1015.175354,409.211517 1006.999390,408.980530 998.833923,409.007233 
	C995.536194,409.018005 993.991760,407.430328 993.993286,404.147369 
	C994.007507,373.984833 994.002686,343.822327 994.002197,313.659790 
	C994.002136,310.296570 995.803528,308.957336 999.026855,308.985199 
	C1005.192261,309.038544 1011.358337,308.999847 1017.524170,309.000092 
	C1025.526978,309.000366 1025.526978,309.000671 1026.277588,316.208740 
	C1032.045288,313.709015 1037.746216,310.534698 1043.852539,308.739746 
	C1056.127563,305.131409 1068.374634,306.177307 1079.616699,312.395782 
	C1088.474609,317.295410 1093.735596,325.163788 1093.957031,335.578613 
	C1094.430420,357.839905 1094.691650,380.105957 1094.983765,402.370789 
	C1095.063110,408.418671 1094.429199,408.982208 1088.443359,408.996246 
	C1081.610962,409.012268 1074.778564,409.006683 1067.946167,408.998047 
	C1061.493164,408.989929 1061.007080,408.528473 1061.003418,402.260162 
	C1060.993408,385.262482 1061.057373,368.264465 1060.952026,351.267456 
	C1060.930786,347.839478 1060.551758,344.363464 1059.877930,341.001770 
	C1058.905884,336.152283 1053.781982,332.038330 1048.375488,332.065857 
	C1036.966797,332.124023 1028.201172,338.267700 1028.046753,352.080627 
	C1027.852905,369.409424 1027.999512,386.742035 1027.996094,404.528198 
z"/>
<path fill="#2D83F0" opacity="1.000000" stroke="none" 
	d="
M425.782043,386.009521 
	C435.529785,382.578705 438.880127,377.720856 439.021942,367.974945 
	C439.277832,350.388641 439.706085,332.804901 439.967438,315.218658 
	C440.019104,311.741211 441.363953,309.963989 444.960632,309.986359 
	C452.619812,310.033905 460.279877,310.043762 467.938873,309.981720 
	C471.494019,309.952911 473.024139,311.590607 473.019897,315.118774 
	C472.983795,345.090637 472.988220,375.062592 473.013550,405.034515 
	C473.016571,408.628571 471.270996,410.075470 467.785400,410.022552 
	C462.125366,409.936615 456.463043,410.000031 450.801697,409.999969 
	C442.258545,409.999847 442.258545,409.999664 441.889893,402.715790 
	C434.033447,405.625153 426.106384,409.733917 417.695007,411.406036 
	C404.417664,414.045380 391.585602,411.231384 381.501892,401.706543 
	C375.685730,396.212738 373.159790,388.360260 373.076111,380.305237 
	C372.852936,358.827667 373.059448,337.345978 372.949493,315.866638 
	C372.927765,311.621033 374.517365,309.843262 378.813141,309.951141 
	C385.968597,310.130829 393.135193,310.132324 400.290558,309.951263 
	C404.674011,309.840332 406.098938,311.807648 406.050323,315.970673 
	C405.908447,328.124298 405.878510,340.282318 406.042755,352.435364 
	C406.152191,360.532074 406.526794,368.632446 407.049744,376.713898 
	C407.452087,382.931641 415.955627,389.591949 425.782043,386.009521 
z"/>
<path fill="#2D83F0" opacity="1.000000" stroke="none" 
	d="
M610.129517,411.066101 
	C592.270874,413.718811 575.860840,411.682434 562.160828,399.568420 
	C547.629883,386.719727 544.922424,370.038574 546.820496,351.588531 
	C548.476929,335.487976 555.476807,322.947083 569.540588,315.303680 
	C576.235901,311.664917 584.074890,309.124573 591.635376,308.310150 
	C604.242920,306.952118 616.912598,307.816132 628.587769,314.171692 
	C639.116760,319.903290 644.730957,329.263916 648.326660,340.092590 
	C648.726990,341.298218 646.875977,344.582947 645.738281,344.758331 
	C636.191040,346.230438 626.566528,347.201294 616.698608,348.354248 
	C616.293335,347.123932 616.023926,346.248718 615.718018,345.386475 
	C612.779053,337.102783 608.106140,333.159363 600.777283,333.021210 
	C593.827271,332.890198 585.358459,335.722076 582.862305,344.603210 
	C579.862061,355.277802 579.967651,365.822174 583.723816,376.430969 
	C586.191284,383.399872 595.560852,387.583832 601.587952,387.025421 
	C609.630066,386.280334 614.720520,382.257660 616.645935,373.334839 
	C617.459656,369.563873 618.896606,368.583527 622.202515,369.002625 
	C629.988525,369.989685 637.777893,370.952087 645.555969,371.998657 
	C649.583435,372.540558 650.455566,374.465118 649.279236,378.558441 
	C643.230286,399.607880 628.082031,409.238434 610.129517,411.066101 
z"/>
<path fill="#2D83F0" opacity="1.000000" stroke="none" 
	d="
M1118.988403,336.268188 
	C1117.031616,335.196564 1115.098877,334.148651 1113.132812,334.081665 
	C1106.389648,333.852112 1106.011230,333.617584 1106.000977,326.963593 
	C1105.994873,322.968506 1106.173340,318.963928 1105.954590,314.980865 
	C1105.701538,310.372253 1107.779175,308.626038 1112.198242,308.971680 
	C1114.305786,309.136505 1116.436890,309.000031 1119.000732,309.000031 
	C1119.000732,303.734772 1118.847778,298.939514 1119.101074,294.165802 
	C1119.170410,292.860779 1120.142090,291.063110 1121.238647,290.439545 
	C1129.187988,285.919250 1137.242310,281.578888 1145.333130,277.313995 
	C1149.395996,275.172363 1151.944214,276.729919 1151.979248,281.298798 
	C1152.048218,290.277588 1151.999512,299.257294 1151.999512,309.000305 
	C1156.595337,309.000305 1161.013550,309.117981 1165.422485,308.965698 
	C1169.464844,308.826050 1171.171753,310.575409 1171.034790,314.600800 
	C1170.881836,319.090057 1170.856201,323.594482 1171.041748,328.081268 
	C1171.215820,332.288879 1169.579468,334.235352 1165.239868,334.040131 
	C1161.093750,333.853607 1156.932739,333.999878 1152.390869,333.999878 
	C1152.251099,335.400146 1152.019287,336.656281 1152.016724,337.912903 
	C1151.989868,350.896851 1151.973389,363.880920 1152.010132,376.864838 
	C1152.031494,384.448090 1153.815552,385.800964 1161.203369,384.052948 
	C1162.787964,383.678040 1164.530518,382.790527 1165.940308,383.152313 
	C1167.747070,383.615997 1170.474609,384.865814 1170.742554,386.193329 
	C1171.904419,391.949738 1172.491455,397.846588 1172.863159,403.719269 
	C1172.946045,405.027252 1171.583130,407.311462 1170.423340,407.676270 
	C1159.143677,411.224976 1147.566040,412.730713 1136.033569,409.419373 
	C1124.262085,406.039429 1119.629272,399.763428 1119.147827,386.674622 
	C1118.536133,370.050903 1118.998169,353.387726 1118.988403,336.268188 
z"/>
<path fill="#2D83F0" opacity="1.000000" stroke="none" 
	d="
M530.000000,337.000000 
	C530.000000,359.478851 530.006592,381.457672 529.995728,403.436523 
	C529.992798,409.426666 529.420227,409.984619 523.386902,409.996521 
	C516.060608,410.010986 508.733276,409.925018 501.408539,410.030579 
	C497.665985,410.084473 495.965302,408.556824 495.971924,404.729004 
	C496.023712,374.924469 496.024170,345.119751 495.971222,315.315216 
	C495.964447,311.515900 497.594055,309.919647 501.364227,309.969940 
	C509.022186,310.072174 516.684326,310.100952 524.340942,309.958801 
	C528.327698,309.884827 530.120056,311.442017 530.038330,315.520966 
	C529.898254,322.511414 529.999878,329.506744 530.000000,337.000000 
z"/>
<path fill="#FA9A36" opacity="1.000000" stroke="none" 
	d="
M837.418335,244.900543 
	C837.356628,243.438110 837.038330,240.929703 837.944092,240.356888 
	C846.282654,235.083420 854.804382,230.095856 863.330627,225.124374 
	C870.155029,221.145294 877.133606,217.427353 883.907959,213.366852 
	C890.458984,209.440231 896.841187,205.231461 903.288940,201.133057 
	C910.846985,196.328903 918.354126,191.441895 925.995483,186.774399 
	C927.084717,186.109055 929.139099,185.879440 930.179626,186.461716 
	C937.759705,190.703217 945.211243,195.176224 952.670898,199.630463 
	C961.653442,204.994034 970.674377,210.298630 979.544861,215.842880 
	C986.051819,219.909882 992.245117,224.479645 998.761230,228.531021 
	C1004.154053,231.884048 1009.863403,234.723221 1015.346558,237.936615 
	C1028.061646,245.388153 1040.734985,252.911087 1053.403564,260.441589 
	C1058.047607,263.202148 1062.402344,266.617065 1067.334351,268.656342 
	C1069.910522,269.721497 1074.072510,269.473175 1076.441650,268.039368 
	C1083.262573,263.911377 1090.137573,259.533997 1094.244507,251.725861 
	C1097.940186,255.076141 1095.431152,258.240875 1092.802002,260.506897 
	C1087.473511,265.099365 1081.870239,269.457733 1075.937622,273.213287 
	C1074.144775,274.348114 1070.383545,274.069580 1068.392578,272.925995 
	C1052.792603,263.965088 1037.400146,254.642746 1021.951843,245.418365 
	C1010.297668,238.459564 998.634521,231.515411 987.013245,224.502060 
	C972.591919,215.798889 958.212708,207.026031 943.808655,198.294174 
	C939.611511,195.749832 935.487732,193.053497 931.121216,190.839142 
	C929.886963,190.213211 927.623352,190.543762 926.324158,191.291290 
	C917.111023,196.592010 908.013977,202.095428 898.902405,207.571640 
	C880.964417,218.352753 863.034851,229.147964 845.118469,239.964905 
	C842.607361,241.480988 840.190247,243.152725 837.418335,244.900543 
z"/>
<path fill="#2D83F0" opacity="1.000000" stroke="none" 
	d="
M529.999573,297.612274 
	C530.096436,301.681488 528.213501,303.058502 524.752075,303.023926 
	C516.931091,302.945801 509.107880,302.930969 501.287323,303.028778 
	C497.471863,303.076508 495.899139,301.364258 495.971008,297.612000 
	C496.082520,291.789368 496.057037,285.962311 495.979614,280.138611 
	C495.932861,276.620972 497.475403,274.957123 501.036896,274.982788 
	C509.024719,275.040344 517.013428,275.036560 525.001282,274.984528 
	C528.578247,274.961243 530.072754,276.675568 530.021606,280.176880 
	C529.938904,285.833984 529.999756,291.493164 529.999573,297.612274 
z"/>
<path fill="#FA9A36" opacity="1.000000" stroke="none" 
	d="
M1094.776611,250.377411 
	C1091.420898,252.293518 1089.070923,250.976715 1086.218750,248.954636 
	C1080.927124,245.203079 1075.027100,242.318588 1069.442627,238.969284 
	C1061.728638,234.342850 1054.081055,229.606049 1046.388916,224.943008 
	C1038.178467,219.965744 1029.928711,215.053116 1021.734924,210.048492 
	C1015.338989,206.141907 1009.046692,202.064331 1002.625977,198.199677 
	C997.391357,195.048904 991.987488,192.179642 986.742981,189.044617 
	C978.873047,184.340225 971.101685,179.471176 963.240906,174.751297 
	C957.723938,171.438675 952.123474,168.265350 946.568542,165.015656 
	C942.493225,162.631592 938.243347,160.481781 934.450378,157.708954 
	C932.790100,156.495255 932.075806,153.987534 930.924072,151.633072 
	C935.388855,153.414856 940.023499,155.357407 944.305664,157.894897 
	C961.994873,168.377121 979.591003,179.016754 997.194214,189.643478 
	C1009.903809,197.316025 1022.544739,205.102249 1035.262939,212.760193 
	C1050.222168,221.767426 1065.292114,230.592392 1080.186523,239.704987 
	C1085.264893,242.812042 1089.957153,246.550491 1094.776611,250.377411 
z"/>
<path fill="#2D83F0" opacity="1.000000" stroke="none" 
	d="
M1186.182373,384.541992 
	C1192.347290,376.532349 1200.197876,375.682861 1208.990234,377.892975 
	C1211.897095,378.623688 1213.610107,380.209381 1212.841064,383.109528 
	C1211.979736,386.357391 1209.372314,386.035126 1206.940186,384.914093 
	C1202.766357,382.990387 1199.339233,383.971893 1196.272949,387.206970 
	C1193.505493,390.126862 1193.149414,393.578430 1195.164551,396.656891 
	C1196.545288,398.766388 1199.004639,400.901062 1201.359863,401.475769 
	C1205.211304,402.415466 1205.283081,399.382751 1204.729736,396.276855 
	C1202.983521,396.107361 1201.225464,395.936676 1199.515869,395.770752 
	C1198.546265,389.041962 1198.576904,388.985626 1205.377563,389.005432 
	C1214.656372,389.032471 1214.005859,387.981049 1214.001221,396.982483 
	C1213.996094,406.683655 1208.624146,410.916718 1198.898315,408.917542 
	C1186.157715,406.298676 1181.044434,397.246979 1186.182373,384.541992 
z"/>
<path fill="#2D83F0" opacity="1.000000" stroke="none" 
	d="
M1237.448975,377.501648 
	C1239.424072,377.107910 1241.099731,377.171661 1242.744629,376.976135 
	C1245.910889,376.599670 1246.926636,378.513702 1246.954590,381.067596 
	C1247.050903,389.857727 1246.991699,398.649506 1246.991699,407.369843 
	C1237.979370,408.925720 1237.979370,408.925720 1236.601196,396.248199 
	C1235.217651,396.167816 1233.775024,396.054810 1232.330078,396.008759 
	C1231.037842,395.967560 1229.743286,396.000092 1228.000000,396.000092 
	C1228.000000,398.253235 1228.000000,400.040375 1228.000000,401.827515 
	C1228.000000,403.644592 1228.000000,405.461670 1228.000000,407.213348 
	C1219.824707,409.203766 1219.001221,408.604553 1219.000244,400.899414 
	C1218.999146,393.107727 1219.000000,385.316040 1219.000000,377.598877 
	C1227.318970,376.255676 1227.318970,376.255676 1228.283325,388.650024 
	C1230.963989,388.650024 1233.683472,388.650024 1237.135742,388.650024 
	C1237.135742,385.051117 1237.135742,381.446564 1237.448975,377.501648 
z"/>
<path fill="#FA9A36" opacity="1.000000" stroke="none" 
	d="
M860.640259,190.037857 
	C861.563171,194.447998 857.727234,195.764343 854.960632,197.413818 
	C841.902527,205.199265 828.599365,212.574570 815.559509,220.389557 
	C803.802002,227.436035 792.342102,234.977997 780.611267,242.070496 
	C775.218872,245.330719 769.492615,248.038620 763.542114,250.998779 
	C764.146729,249.658188 764.839722,247.844208 766.151062,247.045395 
	C781.464905,237.716949 796.897644,228.583923 812.246094,219.311798 
	C825.078125,211.559799 837.833679,203.681213 850.638306,195.883682 
	C853.836365,193.936172 857.093140,192.085037 860.640259,190.037857 
z"/>
<path fill="#FA9A36" opacity="1.000000" stroke="none" 
	d="
M763.207397,258.333374 
	C767.311096,257.184845 769.121826,260.923279 772.015015,262.545746 
	C777.019531,265.352112 780.506348,271.985107 787.476013,269.774292 
	C791.714111,268.429962 795.777832,266.051453 799.413208,263.433746 
	C802.757568,261.025604 802.927551,262.562225 802.969604,265.721191 
	C799.226379,267.981812 795.266968,269.507080 791.819580,271.801544 
	C787.534973,274.653229 784.067688,275.399597 779.776855,271.530182 
	C774.606018,266.867188 768.786926,262.923004 763.207397,258.333374 
z"/>
<path fill="#FA9A36" opacity="1.000000" stroke="none" 
	d="
M803.944214,406.407532 
	C810.936279,406.361115 818.015076,406.400391 825.029663,407.091553 
	C830.328613,407.613739 833.726257,405.517365 836.494080,401.072144 
	C836.161926,408.210510 833.284729,410.977295 826.405579,410.997192 
	C821.455017,411.011536 816.440491,411.470947 811.579041,410.812469 
	C808.920166,410.452301 806.520142,408.182159 803.944214,406.407532 
z"/>
<path fill="#2D83F0" opacity="1.000000" stroke="none" 
	d="
M1250.005127,404.748108 
	C1249.394653,400.749115 1250.921265,398.216888 1254.459717,398.216034 
	C1256.291260,398.215607 1259.193604,399.813904 1259.715698,401.339081 
	C1260.599365,403.920410 1260.927490,407.478180 1256.865845,408.561279 
	C1253.672119,409.412903 1251.008789,408.890869 1250.005127,404.748108 
z"/>
<path fill="#FA9A36" opacity="1.000000" stroke="none" 
	d="
M925.655273,151.213013 
	C926.153503,154.811783 923.706848,155.977417 920.854980,157.414627 
	C916.695435,159.510803 912.980042,162.471710 908.955933,164.863129 
	C907.734985,165.588730 906.119629,165.650803 904.119324,164.985413 
	C904.904114,164.072723 905.688965,163.160034 906.786865,162.095947 
	C913.169861,158.382935 919.239807,154.821304 925.655273,151.213013 
z"/>
<path fill="#FA9A36" opacity="1.000000" stroke="none" 
	d="
M905.890015,156.644714 
	C904.246704,157.279312 902.659912,157.557999 901.062988,157.838486 
	C900.059692,155.780350 899.105469,153.822723 898.076904,151.515793 
	C901.496948,151.561447 904.541138,152.654449 905.890015,156.644714 
z"/>
<path fill="#FA9A36" opacity="1.000000" stroke="none" 
	d="
M868.657959,151.211838 
	C869.205505,155.168777 866.473816,155.098907 863.297241,154.970093 
	C864.695618,153.724319 866.505371,152.490829 868.657959,151.211838 
z"/>
<path fill="#FFFFFF" opacity="1.000000" stroke="none" 
	d="
M291.932709,385.435059 
	C283.794006,381.233185 280.815765,374.055573 280.182739,366.091614 
	C279.719330,360.262024 280.218323,354.174194 281.414673,348.436279 
	C283.292877,339.428436 291.120392,333.198853 299.388641,333.000366 
	C308.305115,332.786316 315.362335,338.334656 318.361755,347.794281 
	C321.373596,357.293091 320.397797,366.679840 316.607086,375.566437 
	C312.893463,384.272308 303.923340,387.607727 291.932709,385.435059 
z"/>
<path fill="#FFFFFF" opacity="1.000000" stroke="none" 
	d="
M939.749634,337.254028 
	C941.758240,340.741333 943.503845,343.965149 945.688538,348.000000 
	C938.681213,348.000000 932.929199,348.000000 927.177124,348.000000 
	C921.567078,348.000000 915.957092,348.000000 910.316711,348.000000 
	C911.506165,334.361359 927.905212,326.418365 939.749634,337.254028 
z"/>
</svg>